<?xml version="1.0" encoding="UTF-8" standalone="no"?>
<!DOCTYPE svg PUBLIC "-//W3C//DTD SVG 1.1//EN"
 "http://www.w3.org/Graphics/SVG/1.1/DTD/svg11.dtd">
<!-- Generated by graphviz version 2.38.0 (20140413.2041)
 -->
<!-- Title: %3 Pages: 1 -->
<svg width="236pt" height="260pt"
 viewBox="0.00 0.00 236.00 260.00" xmlns="http://www.w3.org/2000/svg" xmlns:xlink="http://www.w3.org/1999/xlink">
<g id="graph0" class="graph" transform="scale(1 1) rotate(0) translate(4 256)">
<title>%3</title>
<!-- Cap -->
<g id="node1" class="node"><title>Cap</title>
<ellipse fill="#ffb3b3" stroke="black" cx="27" cy="-234" rx="27" ry="18"/>
<text text-anchor="middle" x="27" y="-229.8" font-family="Times,serif" font-size="14.00">Cap</text>
</g>
<!-- CapKey -->
<g id="node4" class="node"><title>CapKey</title>
<ellipse fill="#ffffb3" stroke="black" stroke-dasharray="5,2" cx="70" cy="-162" rx="39.1641" ry="18"/>
<text text-anchor="middle" x="70" y="-157.8" font-family="Times,serif" font-size="14.00">Cap key</text>
</g>
<!-- Cap&#45;&gt;CapKey -->
<g id="edge1" class="edge"><title>Cap&#45;&gt;CapKey</title>
<path fill="none" stroke="black" d="M36.7574,-217.116C41.94,-208.679 48.4359,-198.104 54.3071,-188.547"/>
<polygon fill="black" stroke="black" points="57.4297,-190.15 59.6816,-179.797 51.4651,-186.486 57.4297,-190.15"/>
</g>
<!-- Index -->
<g id="node5" class="node"><title>Index</title>
<ellipse fill="#ffffb3" stroke="black" stroke-dasharray="5,2" cx="158" cy="-162" rx="30.4862" ry="18"/>
<text text-anchor="middle" x="158" y="-157.8" font-family="Times,serif" font-size="14.00">Index</text>
</g>
<!-- Cap&#45;&gt;Index -->
<g id="edge4" class="edge"><title>Cap&#45;&gt;Index</title>
<path fill="none" stroke="black" d="M47.4688,-222.062C68.7808,-210.674 102.421,-192.699 126.996,-179.567"/>
<polygon fill="black" stroke="black" points="128.755,-182.595 135.926,-174.795 125.456,-176.421 128.755,-182.595"/>
</g>
<!-- SeedKey -->
<g id="node2" class="node"><title>SeedKey</title>
<ellipse fill="#ffffb3" stroke="black" cx="114" cy="-234" rx="42.0545" ry="18"/>
<text text-anchor="middle" x="114" y="-229.8" font-family="Times,serif" font-size="14.00">Seed key</text>
</g>
<!-- SeedKey&#45;&gt;CapKey -->
<g id="edge2" class="edge"><title>SeedKey&#45;&gt;CapKey</title>
<path fill="none" stroke="black" d="M103.573,-216.411C98.2574,-207.955 91.6822,-197.494 85.7635,-188.078"/>
<polygon fill="black" stroke="black" points="88.6375,-186.074 80.3525,-179.47 82.7111,-189.799 88.6375,-186.074"/>
</g>
<!-- SeedKey&#45;&gt;Index -->
<g id="edge5" class="edge"><title>SeedKey&#45;&gt;Index</title>
<path fill="none" stroke="black" d="M124.427,-216.411C129.82,-207.832 136.509,-197.191 142.493,-187.67"/>
<polygon fill="black" stroke="black" points="145.592,-189.317 147.95,-178.988 139.665,-185.592 145.592,-189.317"/>
</g>
<!-- Salt -->
<g id="node3" class="node"><title>Salt</title>
<ellipse fill="#ffffb3" stroke="black" cx="201" cy="-234" rx="27" ry="18"/>
<text text-anchor="middle" x="201" y="-229.8" font-family="Times,serif" font-size="14.00">Salt</text>
</g>
<!-- Salt&#45;&gt;CapKey -->
<g id="edge3" class="edge"><title>Salt&#45;&gt;CapKey</title>
<path fill="none" stroke="black" d="M180.531,-222.062C159.985,-211.084 127.98,-193.982 103.687,-181.001"/>
<polygon fill="black" stroke="black" points="105.263,-177.875 94.7941,-176.249 101.964,-184.049 105.263,-177.875"/>
</g>
<!-- Salt&#45;&gt;Index -->
<g id="edge6" class="edge"><title>Salt&#45;&gt;Index</title>
<path fill="none" stroke="black" d="M191.243,-217.116C185.931,-208.469 179.239,-197.575 173.255,-187.833"/>
<polygon fill="black" stroke="black" points="176.234,-185.996 168.017,-179.307 170.269,-189.66 176.234,-185.996"/>
</g>
<!-- Plan -->
<g id="node7" class="node"><title>Plan</title>
<ellipse fill="none" stroke="black" stroke-dasharray="5,2" cx="117" cy="-18" rx="27" ry="18"/>
<text text-anchor="middle" x="117" y="-13.8" font-family="Times,serif" font-size="14.00">Plan</text>
</g>
<!-- CapKey&#45;&gt;Plan -->
<g id="edge9" class="edge"><title>CapKey&#45;&gt;Plan</title>
<path fill="none" stroke="black" d="M75.5761,-144.153C83.6323,-119.813 98.6077,-74.5681 108.174,-45.6651"/>
<polygon fill="black" stroke="black" points="111.612,-46.4183 111.431,-35.825 104.966,-44.2187 111.612,-46.4183"/>
</g>
<!-- Blob -->
<g id="node6" class="node"><title>Blob</title>
<ellipse fill="#b3e5ff" stroke="black" cx="149" cy="-90" rx="27.113" ry="18"/>
<text text-anchor="middle" x="149" y="-85.8" font-family="Times,serif" font-size="14.00">Blob</text>
</g>
<!-- Index&#45;&gt;Blob -->
<g id="edge7" class="edge"><title>Index&#45;&gt;Blob</title>
<path fill="none" stroke="black" d="M155.775,-143.697C154.783,-135.983 153.592,-126.712 152.486,-118.112"/>
<polygon fill="black" stroke="black" points="155.946,-117.576 151.199,-108.104 149.003,-118.469 155.946,-117.576"/>
</g>
<!-- Blob&#45;&gt;Plan -->
<g id="edge8" class="edge"><title>Blob&#45;&gt;Plan</title>
<path fill="none" stroke="black" d="M141.416,-72.411C137.631,-64.1292 132.966,-53.9249 128.731,-44.662"/>
<polygon fill="black" stroke="black" points="131.87,-43.1095 124.529,-35.4699 125.504,-46.0199 131.87,-43.1095"/>
</g>
</g>
</svg>
